<svg width="24" height="24" viewBox="0 0 24 24" fill="none" xmlns="http://www.w3.org/2000/svg">
<path d="M11.0945 12.576L8.24646 7.504H9.71846L11.1425 10.192C11.2811 10.4373 11.4091 10.6773 11.5265 10.912C11.6545 11.136 11.7985 11.4027 11.9585 11.712H12.0225C12.1718 11.4027 12.2998 11.136 12.4065 10.912C12.5238 10.6773 12.6465 10.4373 12.7745 10.192L14.1665 7.504H15.5745L12.7105 12.64L15.7665 18H14.2945L12.7585 15.168C12.6198 14.912 12.4758 14.6507 12.3265 14.384C12.1878 14.1067 12.0331 13.808 11.8625 13.488H11.7985C11.6491 13.808 11.5051 14.1067 11.3665 14.384C11.2278 14.6507 11.0945 14.912 10.9665 15.168L9.44646 18H8.03846L11.0945 12.576Z" fill="#9A9A9A"/>
<rect x="0.5" y="0.5" width="23" height="23" rx="11.5" stroke="#9A9A9A"/>
</svg>
