<svg width="24" height="25" viewBox="0 0 24 25" fill="none" xmlns="http://www.w3.org/2000/svg">
<path fill-rule="evenodd" clip-rule="evenodd" d="M22 10C22 14.1421 18.6421 17.5 14.5 17.5C12.7684 17.5 11.1738 16.9131 9.90432 15.9275C9.85651 16.0286 9.79077 16.1234 9.70711 16.2071L3.70711 22.2071C3.31658 22.5976 2.68342 22.5976 2.29289 22.2071C1.90237 21.8166 1.90237 21.1834 2.29289 20.7929L8.29289 14.7929C8.37656 14.7092 8.47136 14.6435 8.57252 14.5957C7.58685 13.3262 7 11.7316 7 10C7 5.85786 10.3579 2.5 14.5 2.5C18.6421 2.5 22 5.85786 22 10ZM20 10C20 6.96243 17.5376 4.5 14.5 4.5C11.4624 4.5 9 6.96243 9 10C9 13.0376 11.4624 15.5 14.5 15.5C17.5376 15.5 20 13.0376 20 10Z" fill="#9A9A9A"/>
</svg>
